<svg fill="#000000" version="1.1" id="Capa_1" xmlns="http://www.w3.org/2000/svg" xmlns:xlink="http://www.w3.org/1999/xlink" 
	 width="800px" height="800px" viewBox="0 0 588.866 588.867"
	 xml:space="preserve">
<g>
	<path d="M586.159,61.468c-23.256-107.1-170.748,20.808-202.572,49.572c-52.632,47.736-99.144,102.204-145.044,154.836
		c-39.78,45.901-86.904,86.292-102.204,147.493c-6.12,24.479-0.612,52.02,26.928,56.303c37.944,6.732,80.784-37.332,107.1-58.752
		c66.096-53.855,126.073-121.788,170.749-194.003c9.792-15.3-14.688-29.376-24.479-14.076
		c-49.572,80.784-119.952,156.06-196.453,212.365c-3.672,3.059-56.916,42.227-58.14,14.688
		c-1.224-36.107,32.436-72.828,53.856-97.92c32.436-37.944,66.708-74.052,100.369-111.384
		c34.884-39.78,72.216-77.724,112.607-112.608c33.66-28.764,146.269-106.488,129.744-3.672c-9.18,55.08-61.812,100.368-99.144,137.7
		c-39.168,39.168-73.44,82.621-110.772,124.236c-64.26,70.992-184.824,236.232-293.76,151.164
		C3.535,476.404,37.195,406.025,63.511,361.96c63.648-105.265,163.404-182.988,250.921-266.833
		c12.239-11.628-6.12-29.376-18.36-18.36c-57.528,49.572-113.833,100.368-165.853,156.06
		C76.975,289.132,18.835,357.064,2.311,434.789c-14.076,65.484,37.944,133.416,107.1,134.639
		c52.02,0.613,93.636-22.643,134.028-54.467c61.201-47.736,113.833-114.445,164.628-173.197
		C469.879,268.936,610.027,172.852,586.159,61.468z"/>
</g>
</svg>